:SAMPLES-PER-SECOND 30
:FULLY-SPECIFIED
:DEGREES
144
root  34.78445218 36.46289495 -14.72954788 12.09821892 15.79292679 5.245034695
lowerback  -8.583781242 3.867919683 4.066810608
upperback  -4.452310085 4.513100147 -5.138120174
thorax  0.9058510065 1.99703002 -7.233620167
lowerneck  -16.05400085 -2.070009947 0.8821309805
upperneck  11.61289978 -4.201300144 6.632780075
head  6.302440166 -1.524449944 1.549390078
lclavicle  0 -4.497500157e-015 -2.743230041e-014
lhumerus  -42.55039978 25.69389915 68.76809692
lradius  -0.4821881056 -6.507048965e-006 26.55080223
lwrist  4.824992743e-007 -3.790274832e-007 -32.0082016
lhand  -4.414131695e-031 -36.87379837 -10.66059971
lfingers  90 7.125020027 -90
lthumb  94.80071568 -25.4976377 101.0396607
rclavicle  0 -4.497500157e-015 -2.743230041e-014
rhumerus  72.89569855 -1.809259653 -55.01929855
rradius  -5.16745672e-007 2.214343908e-008 43.83349991
rwrist  1.129822067e-006 0.001802438172 -158.8150024
rhand  -1.772438771e-031 5.048570156 -6.01075983
rfingers  -90 -7.125020027 -90
rthumb  -84.1304384 -9.881284312 -59.07586599
rfemur  -14.31965542 9.067845345 15.3039856
rtibia  -3.775418997 2.681057215 24.92473793
rfoot  -3.256750107 -12.89151192 -46.28723526
rtoes  4.012487098 19.60953194 -101.8054959
lfemur  -12.4716053 -23.86204529 -18.47929955
ltibia  3.818593979 2.983413458 14.17737198
lfoot  0.6965277195 -30.64901352 27.21021461
ltoes  -8.571644587 -18.13839975 -115.8350218
145
root  34.7837373 36.46262762 -14.73058415 12.13895035 15.96342564 5.294909477
lowerback  -8.573760033 3.884789705 4.08259964
upperback  -4.460000038 4.534880161 -5.150730133
thorax  0.8978329897 2.007380009 -7.254469872
lowerneck  -16.07519913 -2.111390114 0.89814502
upperneck  11.64999962 -4.261119843 6.61345005
head  6.318950176 -1.552719831 1.53429997
lclavicle  0 -4.497500157e-015 -2.743230041e-014
lhumerus  -42.54850006 25.78890038 68.68720245
lradius  -0.4815254211 -6.507048965e-006 26.53440094
lwrist  4.824992743e-007 -3.790274832e-007 -32.18099976
lhand  -4.426003855e-031 -37.07820129 -10.80109978
lfingers  90 7.125020027 -90
lthumb  94.92688575 -25.62808275 101.2713858
rclavicle  0 -4.497500157e-015 -2.743230041e-014
rhumerus  73.15699768 -1.821219325 -54.98239899
rradius  -5.16745672e-007 2.214343908e-008 43.32310104
rwrist  1.129822067e-006 0.001802438172 -157.9759979
rhand  -1.772030049e-031 4.896699905 -6.091020107
rfingers  -90 -7.125020027 -90
rthumb  -84.21112968 -9.804137589 -59.23168807
rfemur  -14.36660194 9.003022194 15.29917431
rtibia  -3.823230267 2.672426224 25.01519394
rfoot  -3.318560362 -12.85911083 -46.3696785
rtoes  4.01554355 19.60892992 -101.8146032
lfemur  -12.51392937 -23.93852615 -18.49686623
ltibia  3.816808462 2.997068167 14.17852783
lfoot  0.6797161698 -30.67614555 27.09453773
ltoes  -8.581101975 -18.13404528 -115.8654043
146
root  34.78295634 36.46246843 -14.73099416 12.19075966 16.13479614 5.358678341
lowerback  -8.570500374 3.904699802 4.105579853
upperback  -4.451900005 4.562059879 -5.159699917
thorax  0.9111030102 2.022190094 -7.274040222
lowerneck  -16.20240021 -2.182579994 0.9029499888
upperneck  11.72360039 -4.374030113 6.641290188
head  6.368199825 -1.600769997 1.529699922
lclavicle  0 -4.497500157e-015 -2.743230041e-014
lhumerus  -42.49840164 25.86020088 68.64579773
lradius  -0.480854094 -6.507048965e-006 26.49679947
lwrist  4.824992743e-007 -3.790274832e-007 -32.2378006
lhand  -4.428270988e-031 -37.11700058 -10.7968998
lfingers  90 7.125020027 -90
lthumb  94.94423724 -25.62251014 101.3124866
rclavicle  0 -4.497500157e-015 -2.743230041e-014
rhumerus  73.45539856 -1.872211456 -55.24319839
rradius  -5.16745672e-007 2.214343908e-008 42.68230057
rwrist  1.129822067e-006 0.001802438172 -157.1869965
rhand  -0 5.116889954 -6.105410099
rfingers  -90 -7.125020027 -90
rthumb  -84.16230436 -9.80379832 -59.01740702
rfemur  -14.42983723 8.960599899 15.28455925
rtibia  -3.873590231 2.694189072 25.13552094
rfoot  -3.389875412 -12.77340317 -46.45363235
rtoes  4.016858216 19.60867082 -101.8185206
lfemur  -12.51452351 -24.04180527 -18.53219795
ltibia  3.845751762 3.023620129 14.0969429
lfoot  0.6759194136 -30.68982124 27.02980995
ltoes  -8.573393685 -18.13759486 -115.8406404
147
root  34.78182695 36.45852157 -14.73175109 12.22361088 16.30607605 5.393828392
lowerback  -8.575119972 3.922230244 4.089109421
upperback  -4.448460102 4.587339878 -5.172160149
thorax  0.9209700227 2.035640001 -7.274590015
lowerneck  -16.19709969 -2.207340002 0.9006659985
upperneck  11.71909904 -4.406429291 6.641940594
head  6.36714983 -1.616680145 1.527209997
lclavicle  0 -4.497500157e-015 -2.743230041e-014
lhumerus  -42.47719955 26.0442009 68.52510071
lradius  -0.4801740944 -6.507048965e-006 26.46129799
lwrist  4.824992743e-007 -3.790274832e-007 -32.40399933
lhand  -4.421075406e-031 -36.99359894 -10.73900032
lfingers  90 7.125020027 -90
lthumb  94.87364258 -25.57032378 101.1749705
rclavicle  0 -4.497500157e-015 -2.743230041e-014
rhumerus  73.72579956 -2.010099649 -55.73419952
rradius  -5.16745672e-007 2.214343908e-008 42.08620071
rwrist  1.129822067e-006 0.001802438172 -156.4900055
rhand  -1.773272061e-031 5.344679832 -6.189730167
rfingers  -90 -7.125020027 -90
rthumb  -84.14803469 -9.744171156 -58.80205063
rfemur  -14.45034599 8.820234299 15.30211353
rtibia  -3.900368929 2.689471006 25.19358253
rfoot  -3.416693449 -12.77576542 -46.43535614
rtoes  4.002570987 19.61148178 -101.7759506
lfemur  -12.55078697 -24.11606407 -18.52537155
ltibia  3.843750954 3.037709951 14.09639454
lfoot  0.6746221781 -30.7118187 26.95986748
ltoes  -8.621687307 -18.11529044 -115.9958678
148
root  34.77998869 36.45531361 -14.73254407 12.24873257 16.47982597 5.409228802
lowerback  -8.593118668 3.936510086 4.083999634
upperback  -4.442170143 4.606890202 -5.194409847
thorax  0.9418929815 2.046190023 -7.292019844
lowerneck  -16.14590073 -2.235340118 0.8486170173
upperneck  11.6814003 -4.438610077 6.702129841
head  6.347654819 -1.632367611 1.548734784
lclavicle  0 -4.497500157e-015 -2.743230041e-014
lhumerus  -42.38629913 26.11689949 68.47160339
lradius  -0.4794853926 -6.507048965e-006 26.34440041
lwrist  4.824992743e-007 -3.790274832e-007 -32.51100159
lhand  -0 -36.94309998 -10.68309975
lfingers  90 7.125020027 -90
lthumb  94.83800898 -25.51723726 101.1159128
rclavicle  0 -4.497500157e-015 -2.743230041e-014
rhumerus  73.98220062 -2.181560755 -56.13869858
rradius  -5.16745672e-007 2.214343908e-008 41.51539993
rwrist  1.129822067e-006 0.001802438172 -156.0070038
rhand  -1.77228767e-031 4.99296999 -6.562530041
rfingers  -90 -7.125020027 -90
rthumb  -84.43170458 -9.404539094 -59.17832201
rfemur  -14.46052647 8.686310768 15.32939148
rtibia  -3.915907145 2.690546989 25.22687912
rfoot  -3.455208302 -12.78299141 -46.48306656
rtoes  3.999514057 19.61208186 -101.766843
lfemur  -12.62758923 -24.22460365 -18.47748947
ltibia  3.815954924 3.048960447 14.16392136
lfoot  0.6760726571 -30.76097488 26.8910675
ltoes  -8.641864051 -18.10592539 -116.0607756
149
root  34.78045726 36.45010821 -14.7341946 12.33842278 16.61752319 5.41254425
lowerback  -8.539509773 3.959389925 4.076530457
upperback  -4.429580212 4.641320229 -5.230199814
thorax  0.9332550168 2.064120054 -7.324570179
lowerneck  -16.10790062 -2.289910078 0.8317779899
upperneck  11.66329956 -4.515029907 6.746610165
head  6.341819763 -1.668519974 1.560950041
lclavicle  0 -4.497500157e-015 -2.743230041e-014
lhumerus  -42.30189896 26.08659935 68.43209839
lradius  -0.4787879586 -6.507048965e-006 26.23049927
lwrist  4.824992743e-007 -3.790274832e-007 -32.54130173
lhand  -4.418381259e-031 -36.94720078 -10.64820004
lfingers  90 7.125020027 -90
lthumb  94.83244991 -25.48285924 101.1170268
rclavicle  0 -4.497500157e-015 -2.743230041e-014
rhumerus  74.17379761 -2.326099873 -56.57929993
rradius  -5.16745672e-007 2.214343908e-008 41.03079987
rwrist  1.129822067e-006 0.001802438172 -155.4380035
rhand  -1.773186655e-031 5.315100193 -6.676799774
rfingers  -90 -7.125020027 -90
rthumb  -84.41111477 -9.325634523 -58.87330211
rfemur  -14.57745075 8.612232208 15.3443985
rtibia  -3.940920591 2.716809034 25.29973221
rfoot  -3.506746054 -12.73759937 -46.5383606
rtoes  3.99450198 19.6130647 -101.7519109
lfemur  -12.81194401 -24.27951813 -18.38758659
ltibia  3.771317959 3.081755161 14.27694702
lfoot  0.6832669973 -30.84346581 26.8180542
ltoes  -8.633038116 -18.11002533 -116.0323789
150
root  34.78137339 36.44860936 -14.73751218 12.3946228 16.72778893 5.451694965
lowerback  -8.527049065 4.002110004 4.118869781
upperback  -4.425069809 4.696819782 -5.26816988
thorax  0.946130991 2.092109919 -7.383699894
lowerneck  -16.12770081 -2.34243989 0.8440369964
upperneck  11.67930031 -4.598149776 6.779669762
head  6.351261139 -1.705604434 1.553946614
lclavicle  0 -4.497500157e-015 -2.743230041e-014
lhumerus  -42.22200012 26.08539963 68.36949921
lradius  -0.478081733 -6.507048965e-006 26.14899826
lwrist  4.824992743e-007 -3.790274832e-007 -32.6935997
lhand  -4.419437315e-031 -36.9654007 -10.70269966
lfingers  90 7.125020027 -90
lthumb  94.85264533 -25.53563328 101.1415517
rclavicle  0 -4.497500157e-015 -2.743230041e-014
rhumerus  74.34670258 -2.518410444 -56.96580124
rradius  -5.16745672e-007 2.214343908e-008 40.55350113
rwrist  1.129822067e-006 0.001802438172 -155.0440063
rhand  -1.773674342e-031 5.48183012 -6.743000031
rfingers  -90 -7.125020027 -90
rthumb  -84.40421718 -9.279186068 -58.71612387
rfemur  -14.65755939 8.613636971 15.33683872
rtibia  -3.988481283 2.735418081 25.39164162
rfoot  -3.546931028 -12.64217091 -46.59275818
rtoes  3.993684289 19.61322492 -101.7494749
lfemur  -12.90957832 -24.36814499 -18.37056732
ltibia  3.751647949 3.09260869 14.32306004
lfoot  0.6992733479 -30.87108803 26.80480385
ltoes  -8.638437674 -18.10751767 -116.0497508
